<?xml version="1.0" encoding="UTF-8" standalone="no"?>
<svg
   xmlns:dc="http://purl.org/dc/elements/1.1/"
   xmlns:cc="http://creativecommons.org/ns#"
   xmlns:rdf="http://www.w3.org/1999/02/22-rdf-syntax-ns#"
   xmlns:svg="http://www.w3.org/2000/svg"
   xmlns="http://www.w3.org/2000/svg"
   version="1.1"
   id="svg3489"
   viewBox="0 0 299.99999 300.00001"
   height="320"
   width="320">
  <defs
     id="defs3491">
    <clipPath
       id="clipPath84"
       clipPathUnits="userSpaceOnUse">
      <path
         id="path86"
         d="M 0,841.89 H 595.275 V 0 H 0 Z" />
    </clipPath>
  </defs>
  <metadata
     id="metadata3494">
    <rdf:RDF>
      <cc:Work
         rdf:about="">
        <dc:format>image/svg+xml</dc:format>
        <dc:type
           rdf:resource="http://purl.org/dc/dcmitype/StillImage" />
        <dc:title></dc:title>
      </cc:Work>
    </rdf:RDF>
  </metadata>
  <g
     transform="translate(0,-752.36214)"
     id="layer1">
    <g
       style="fill:#ffffff"
       id="g80"
       transform="matrix(1.25,0,0,-1.25,-125.74979,1526.7507)">
      <g
         style="fill:#ffffff"
         clip-path="url(#clipPath84)"
         id="g82">
        <g
           style="fill:#ffffff"
           transform="translate(268.4277,517.2104)"
           id="g88">
          <path
             id="path90"
             style="fill:#ffffff;fill-opacity:0;stroke:#cfcfcf;stroke-width:4;stroke-linecap:butt;stroke-linejoin:miter;stroke-miterlimit:4;stroke-dasharray:none;stroke-opacity:1"
             d="m 0,0 c 0,0 29.621,-14.659 37.722,-13.469 5.156,0.757 10.116,-23.64 -5.366,-33.928 -10.319,-6.859 -76.583,21.185 -166.17,83.082 0,0 -2.714,69.646 33.38,58.013 0,0 7.635227,-5.65029 17.879707,-14.278048 C -62.243415,62.314415 -31.676163,33.505141 -30.021,13.822 c 4.526,-53.848 -15.717,-120.649 1.745,-138.572 26.102,-26.794 -194.062,49.479 -45.48,39.361 0,0 64.125,93.404 73.756,85.389 z" />
        </g>
      </g>
    </g>
  </g>
</svg>
